<?xml version="1.0" encoding="UTF-8" standalone="no"?><!DOCTYPE svg PUBLIC "-//W3C//DTD SVG 1.1//EN" "http://www.w3.org/Graphics/SVG/1.1/DTD/svg11.dtd"><!-- Generated by graphviz version 2.40.1 (20161225.0304)
 --><!-- Title: vert Pages: 1 --><svg xmlns="http://www.w3.org/2000/svg" xmlns:xlink="http://www.w3.org/1999/xlink" width="1831pt" height="940pt" viewBox="0.00 0.00 1831.07 940.20">
<g id="graph0" class="graph" transform="scale(1 1) rotate(0) translate(4 936.2)">
<title>vert</title>
<polygon fill="#ffffff" stroke="transparent" points="-4,4 -4,-936.2 1827.0669,-936.2 1827.0669,4 -4,4"/>
<g id="clust1" class="cluster">
<title>cluster_1</title>
<polygon fill="none" stroke="#000000" points="562.9383,-106.2 562.9383,-291.2 919.787,-291.2 919.787,-106.2 562.9383,-106.2"/>
<text text-anchor="middle" x="741.3626" y="-274.6" font-family="Helvetica,Arial,sans-serif" font-size="14.00" fill="#000000">Artificial Intelligence</text>
</g>
<g id="clust2" class="cluster">
<title>cluster_2</title>
<polygon fill="none" stroke="#000000" points="574.7506,-739.2 574.7506,-924.2 907.9746,-924.2 907.9746,-739.2 574.7506,-739.2"/>
<text text-anchor="middle" x="741.3626" y="-907.6" font-family="Helvetica,Arial,sans-serif" font-size="14.00" fill="#000000">Database and Information Systems</text>
</g>
<g id="clust3" class="cluster">
<title>cluster_3</title>
<polygon fill="none" stroke="#000000" points="559.202,-546.2 559.202,-731.2 923.5233,-731.2 923.5233,-546.2 559.202,-546.2"/>
<text text-anchor="middle" x="741.3626" y="-714.6" font-family="Helvetica,Arial,sans-serif" font-size="14.00" fill="#000000">Graphics/HCI</text>
</g>
<g id="clust4" class="cluster">
<title>cluster_4</title>
<polygon fill="none" stroke="#000000" points="88.5071,-314.2 88.5071,-391.2 376.6061,-391.2 376.6061,-314.2 88.5071,-314.2"/>
<text text-anchor="middle" x="232.5566" y="-374.6" font-family="Helvetica,Arial,sans-serif" font-size="14.00" fill="#000000">Parallel Computing</text>
</g>
<g id="clust5" class="cluster">
<title>cluster_5</title>
<polygon fill="none" stroke="#000000" points="8,-484.2 8,-669.2 457.1131,-669.2 457.1131,-484.2 8,-484.2"/>
<text text-anchor="middle" x="232.5566" y="-652.6" font-family="Helvetica,Arial,sans-serif" font-size="14.00" fill="#000000">Programming Languages &amp; Software Engineering</text>
</g>
<g id="clust6" class="cluster">
<title>cluster_6</title>
<polygon fill="none" stroke="#000000" points="99.2398,-719.2 99.2398,-796.2 365.8734,-796.2 365.8734,-719.2 99.2398,-719.2"/>
<text text-anchor="middle" x="232.5566" y="-779.6" font-family="Helvetica,Arial,sans-serif" font-size="14.00" fill="#000000">Scientific Computing</text>
</g>
<g id="clust7" class="cluster">
<title>cluster_7</title>
<polygon fill="none" stroke="#000000" points="93.3239,-825.2 93.3239,-902.2 371.7892,-902.2 371.7892,-825.2 93.3239,-825.2"/>
<text text-anchor="middle" x="232.5566" y="-885.6" font-family="Helvetica,Arial,sans-serif" font-size="14.00" fill="#000000">Security and Privacy</text>
</g>
<g id="clust8" class="cluster">
<title>cluster_8</title>
<polygon fill="none" stroke="#000000" points="477.1131,-299.2 477.1131,-538.2 1005.6122,-538.2 1005.6122,-299.2 477.1131,-299.2"/>
<text text-anchor="middle" x="741.3626" y="-521.6" font-family="Helvetica,Arial,sans-serif" font-size="14.00" fill="#000000">Systems and Networking</text>
</g>
<g id="clust10" class="cluster">
<title>cluster_10</title>
<polygon fill="none" stroke="#000000" points="1025.6122,-369.2 1025.6122,-770.2 1815.0669,-770.2 1815.0669,-369.2 1025.6122,-369.2"/>
<text text-anchor="middle" x="1420.3395" y="-753.6" font-family="Helvetica,Arial,sans-serif" font-size="14.00" fill="#000000">Advanced Coursework</text>
</g>
<g id="clust11" class="cluster">
<title>cluster_15</title>
<polygon fill="none" stroke="#000000" points="46.0909,-60.2 46.0909,-137.2 419.0223,-137.2 419.0223,-60.2 46.0909,-60.2"/>
<text text-anchor="middle" x="232.5566" y="-120.6" font-family="Helvetica,Arial,sans-serif" font-size="14.00" fill="#000000">Statistics</text>
</g>
<!-- n11 -->
<g id="node1" class="node">
<title>n11</title>
<g id="a_node1"><a xlink:href="https://ws.engr.illinois.edu/sitemanager/getfile.asp?id=2218" xlink:title="CS441:Applied Machine Learning">
<defs>
<radialGradient id="r_0" cx="50%" cy="50%" r="75%" fx="100%" fy="50%">
<stop offset="0" style="stop-color:#ffffff;stop-opacity:1.;"/>
<stop offset="1" style="stop-color:#c0c0c0;stop-opacity:1.;"/>
</radialGradient>
</defs>
<ellipse fill="url(#r_0)" stroke="#000000" cx="741.3626" cy="-240.2" rx="154.7168" ry="18"/>
<text text-anchor="middle" x="741.3626" y="-236" font-family="Helvetica,Arial,sans-serif" font-size="14.00" fill="#000000">CS441:Applied Machine Learning</text>
</a>
</g>
</g>
<!-- n104 -->
<g id="node23" class="node">
<title>n104</title>
<g id="a_node23"><a xlink:href="https://ws.engr.illinois.edu/sitemanager/getfile.asp?id=502" xlink:title="CS598:Practical Statistical Learning">
<defs>
<radialGradient id="r_1" cx="50%" cy="50%" r="75%" fx="100%" fy="50%">
<stop offset="0" style="stop-color:#ffffff;stop-opacity:1.;"/>
<stop offset="1" style="stop-color:#c0c0c0;stop-opacity:1.;"/>
</radialGradient>
</defs>
<ellipse fill="url(#r_1)" stroke="#000000" cx="1642.5642" cy="-395.2" rx="164.5055" ry="18"/>
<text text-anchor="middle" x="1642.5642" y="-391" font-family="Helvetica,Arial,sans-serif" font-size="14.00" fill="#000000">CS598:Practical Statistical Learning</text>
</a>
</g>
</g>
<!-- n11&#45;&gt;n104 -->
<g id="edge6" class="edge">
<title>n11-&gt;n104</title>
<path fill="none" stroke="#000000" d="M828.1827,-255.1324C996.6281,-284.1038 1366.773,-347.766 1544.0856,-378.2624"/>
<polygon fill="#000000" stroke="#000000" points="1543.7424,-381.7547 1554.191,-380.0005 1544.929,-374.856 1543.7424,-381.7547"/>
</g>
<!-- n106 -->
<g id="node25" class="node">
<title>n106</title>
<g id="a_node25"><a xlink:href="https://ws.engr.illinois.edu/sitemanager/getfile.asp?id=2191" xlink:title="CS598:Deep Learning for Healthcare">
<defs>
<radialGradient id="r_2" cx="50%" cy="50%" r="75%" fx="100%" fy="50%">
<stop offset="0" style="stop-color:#ffffff;stop-opacity:1.;"/>
<stop offset="1" style="stop-color:#c0c0c0;stop-opacity:1.;"/>
</radialGradient>
</defs>
<ellipse fill="url(#r_2)" stroke="#000000" cx="1237.8368" cy="-395.2" rx="169.7615" ry="18"/>
<text text-anchor="middle" x="1237.8368" y="-391" font-family="Helvetica,Arial,sans-serif" font-size="14.00" fill="#000000">CS598:Deep Learning for Healthcare</text>
</a>
</g>
</g>
<!-- n11&#45;&gt;n106 -->
<g id="edge5" class="edge">
<title>n11-&gt;n106</title>
<path fill="none" stroke="#000000" d="M848.5219,-253.2477C897.6546,-261.5464 955.8945,-274.7173 1005.6122,-295.2 1015.4145,-299.2384 1016.2219,-303.2789 1025.6122,-308.2 1075.6176,-334.406 1135.3275,-358.2694 1178.6556,-374.3472"/>
<polygon fill="#000000" stroke="#000000" points="1177.6004,-377.6884 1188.1939,-377.8592 1180.0191,-371.1195 1177.6004,-377.6884"/>
</g>
<!-- n12 -->
<g id="node2" class="node">
<title>n12</title>
<g id="a_node2"><a xlink:href="https://ws.engr.illinois.edu/sitemanager/getfile.asp?id=572" xlink:title="CS445:Computational Photography">
<defs>
<radialGradient id="r_3" cx="50%" cy="50%" r="75%" fx="100%" fy="50%">
<stop offset="0" style="stop-color:#ffffff;stop-opacity:1.;"/>
<stop offset="1" style="stop-color:#c0c0c0;stop-opacity:1.;"/>
</radialGradient>
</defs>
<ellipse fill="url(#r_3)" stroke="#000000" cx="741.3626" cy="-186.2" rx="162.8226" ry="18"/>
<text text-anchor="middle" x="741.3626" y="-182" font-family="Helvetica,Arial,sans-serif" font-size="14.00" fill="#000000">CS445:Computational Photography</text>
</a>
</g>
</g>
<!-- n12&#45;&gt;n104 -->
<g id="edge7" class="edge">
<title>n12-&gt;n104</title>
<path fill="none" stroke="#000000" d="M897.0164,-191.5533C1041.6868,-200.428 1261.4045,-223.9502 1442.0615,-286.2 1503.7903,-307.4702 1569.1287,-346.522 1607.8517,-371.6496"/>
<polygon fill="#000000" stroke="#000000" points="1606.354,-374.8528 1616.6361,-377.4081 1610.1917,-368.9985 1606.354,-374.8528"/>
</g>
<!-- n13 -->
<g id="node3" class="node">
<title>n13</title>
<defs>
<radialGradient id="r_4" cx="50%" cy="50%" r="75%" fx="100%" fy="50%">
<stop offset="0" style="stop-color:#ffffff;stop-opacity:1.;"/>
<stop offset="1" style="stop-color:#c0c0c0;stop-opacity:1.;"/>
</radialGradient>
</defs>
<ellipse fill="url(#r_4)" stroke="#000000" cx="741.3626" cy="-132.2" rx="170.3488" ry="18"/>
<text text-anchor="middle" x="741.3626" y="-128" font-family="Helvetica,Arial,sans-serif" font-size="14.00" fill="#000000">CS447:Natural Language Processing</text>
</g>
<!-- n21 -->
<g id="node4" class="node">
<title>n21</title>
<g id="a_node4"><a xlink:href="https://ws.engr.illinois.edu/sitemanager/getfile.asp?id=515" xlink:title="CS410:Text Information Systems">
<defs>
<radialGradient id="r_5" cx="50%" cy="50%" r="75%" fx="100%" fy="50%">
<stop offset="0" style="stop-color:#ffffff;stop-opacity:1.;"/>
<stop offset="1" style="stop-color:#c0c0c0;stop-opacity:1.;"/>
</radialGradient>
</defs>
<ellipse fill="url(#r_5)" stroke="#000000" cx="741.3626" cy="-873.2" rx="152.8964" ry="18"/>
<text text-anchor="middle" x="741.3626" y="-869" font-family="Helvetica,Arial,sans-serif" font-size="14.00" fill="#000000">CS410:Text Information Systems</text>
</a>
</g>
</g>
<!-- n21&#45;&gt;n104 -->
<g id="edge8" class="edge">
<title>n21-&gt;n104</title>
<path fill="none" stroke="#000000" d="M839.107,-887.0844C984.7502,-902.3192 1260.9596,-909.5916 1442.0615,-780.2 1568.3013,-690.0056 1621.1696,-495.8862 1637.0331,-423.3266"/>
<polygon fill="#000000" stroke="#000000" points="1640.4599,-424.0384 1639.1095,-413.53 1633.6121,-422.587 1640.4599,-424.0384"/>
</g>
<!-- n108 -->
<g id="node27" class="node">
<title>n108</title>
<g id="a_node27"><a xlink:href="https://ws.engr.illinois.edu/sitemanager/getfile.asp?id=503" xlink:title="CS598:Data Mining Capstone">
<defs>
<radialGradient id="r_6" cx="50%" cy="50%" r="75%" fx="100%" fy="50%">
<stop offset="0" style="stop-color:#ffffff;stop-opacity:1.;"/>
<stop offset="1" style="stop-color:#c0c0c0;stop-opacity:1.;"/>
</radialGradient>
</defs>
<ellipse fill="url(#r_6)" stroke="#000000" cx="1237.8368" cy="-665.2" rx="138.5093" ry="18"/>
<text text-anchor="middle" x="1237.8368" y="-661" font-family="Helvetica,Arial,sans-serif" font-size="14.00" fill="#000000">CS598:Data Mining Capstone</text>
</a>
</g>
</g>
<!-- n21&#45;&gt;n108 -->
<g id="edge14" class="edge">
<title>n21-&gt;n108</title>
<path fill="none" stroke="#000000" d="M819.9859,-888.6403C879.0071,-895.3092 957.6055,-892.9125 1005.6122,-846.2 1055.0783,-798.0673 976.7447,-740.9404 1025.6122,-692.2 1050.6238,-667.2534 1086.3444,-657.1167 1121.3643,-654.2287"/>
<polygon fill="#000000" stroke="#000000" points="1121.9431,-657.6993 1131.7035,-653.578 1121.5034,-650.7131 1121.9431,-657.6993"/>
</g>
<!-- n22 -->
<g id="node5" class="node">
<title>n22</title>
<g id="a_node5"><a xlink:href="https://ws.engr.illinois.edu/sitemanager/getfile.asp?id=513" xlink:title="CS411:Database Systems">
<defs>
<radialGradient id="r_7" cx="50%" cy="50%" r="75%" fx="100%" fy="50%">
<stop offset="0" style="stop-color:#ffffff;stop-opacity:1.;"/>
<stop offset="1" style="stop-color:#c0c0c0;stop-opacity:1.;"/>
</radialGradient>
</defs>
<ellipse fill="url(#r_7)" stroke="#000000" cx="741.3626" cy="-819.2" rx="124.0327" ry="18"/>
<text text-anchor="middle" x="741.3626" y="-815" font-family="Helvetica,Arial,sans-serif" font-size="14.00" fill="#000000">CS411:Database Systems</text>
</a>
</g>
</g>
<!-- n23 -->
<g id="node6" class="node">
<title>n23</title>
<g id="a_node6"><a xlink:href="https://ws.engr.illinois.edu/sitemanager/getfile.asp?id=511" xlink:title="CS412:Introduction to Data Mining">
<defs>
<radialGradient id="r_8" cx="50%" cy="50%" r="75%" fx="100%" fy="50%">
<stop offset="0" style="stop-color:#ffffff;stop-opacity:1.;"/>
<stop offset="1" style="stop-color:#c0c0c0;stop-opacity:1.;"/>
</radialGradient>
</defs>
<ellipse fill="url(#r_8)" stroke="#000000" cx="741.3626" cy="-765.2" rx="158.7241" ry="18"/>
<text text-anchor="middle" x="741.3626" y="-761" font-family="Helvetica,Arial,sans-serif" font-size="14.00" fill="#000000">CS412:Introduction to Data Mining</text>
</a>
</g>
</g>
<!-- n23&#45;&gt;n104 -->
<g id="edge9" class="edge">
<title>n23-&gt;n104</title>
<path fill="none" stroke="#000000" d="M867.3077,-776.2077C1042.4164,-789.1081 1348.4822,-802.2247 1442.0615,-746.2 1565.1978,-672.4799 1619.5512,-492.5537 1636.4362,-423.1475"/>
<polygon fill="#000000" stroke="#000000" points="1639.8551,-423.8981 1638.7446,-413.3617 1633.0421,-422.291 1639.8551,-423.8981"/>
</g>
<!-- n23&#45;&gt;n108 -->
<g id="edge15" class="edge">
<title>n23-&gt;n108</title>
<path fill="none" stroke="#000000" d="M870.6916,-775.6296C916.9553,-773.2313 967.1182,-762.9285 1005.6122,-735.2 1022.7143,-722.8807 1008.5936,-704.6344 1025.6122,-692.2 1044.6368,-678.2999 1067.2647,-669.6307 1090.5417,-664.4537"/>
<polygon fill="#000000" stroke="#000000" points="1091.4338,-667.8445 1100.5487,-662.4437 1090.0553,-660.9815 1091.4338,-667.8445"/>
</g>
<!-- n31 -->
<g id="node7" class="node">
<title>n31</title>
<defs>
<radialGradient id="r_9" cx="50%" cy="50%" r="75%" fx="100%" fy="50%">
<stop offset="0" style="stop-color:#ffffff;stop-opacity:1.;"/>
<stop offset="1" style="stop-color:#c0c0c0;stop-opacity:1.;"/>
</radialGradient>
</defs>
<ellipse fill="url(#r_9)" stroke="#000000" cx="741.3626" cy="-680.2" rx="174.3214" ry="18"/>
<text text-anchor="middle" x="741.3626" y="-676" font-family="Helvetica,Arial,sans-serif" font-size="14.00" fill="#000000">CS418:Interactive Computer Graphics</text>
</g>
<!-- n102 -->
<g id="node21" class="node">
<title>n102</title>
<g id="a_node21"><a xlink:href="https://documentcloud.adobe.com/link/review?uri=urn:aaid:scds:US:78ef0a5f-6307-4635-8552-379d5cc15313#pageNum=1" xlink:title="CS519:Scientific Visualization">
<defs>
<radialGradient id="r_10" cx="50%" cy="50%" r="75%" fx="100%" fy="50%">
<stop offset="0" style="stop-color:#ffffff;stop-opacity:1.;"/>
<stop offset="1" style="stop-color:#c0c0c0;stop-opacity:1.;"/>
</radialGradient>
</defs>
<ellipse fill="url(#r_10)" stroke="#000000" cx="1237.8368" cy="-503.2" rx="138.988" ry="18"/>
<text text-anchor="middle" x="1237.8368" y="-499" font-family="Helvetica,Arial,sans-serif" font-size="14.00" fill="#000000">CS519:Scientific Visualization</text>
</a>
</g>
</g>
<!-- n31&#45;&gt;n102 -->
<g id="edge3" class="edge">
<title>n31-&gt;n102</title>
<path fill="none" stroke="#000000" d="M826.6413,-695.925C884.5333,-701.3724 958.7931,-697.3188 1005.6122,-653.2 1045.9201,-615.2167 985.7768,-568.6786 1025.6122,-530.2 1049.8218,-506.815 1083.4865,-496.6031 1116.8782,-493.1683"/>
<polygon fill="#000000" stroke="#000000" points="1117.5441,-496.6253 1127.2215,-492.3129 1116.967,-489.6491 1117.5441,-496.6253"/>
</g>
<!-- n32 -->
<g id="node8" class="node">
<title>n32</title>
<g id="a_node8"><a xlink:href="https://ws.engr.illinois.edu/sitemanager/getfile.asp?id=572" xlink:title="CS445:Computational Photography">
<defs>
<radialGradient id="r_11" cx="50%" cy="50%" r="75%" fx="100%" fy="50%">
<stop offset="0" style="stop-color:#ffffff;stop-opacity:1.;"/>
<stop offset="1" style="stop-color:#c0c0c0;stop-opacity:1.;"/>
</radialGradient>
</defs>
<ellipse fill="url(#r_11)" stroke="#000000" cx="741.3626" cy="-626.2" rx="162.8226" ry="18"/>
<text text-anchor="middle" x="741.3626" y="-622" font-family="Helvetica,Arial,sans-serif" font-size="14.00" fill="#000000">CS445:Computational Photography</text>
</a>
</g>
</g>
<!-- n33 -->
<g id="node9" class="node">
<title>n33</title>
<g id="a_node9"><a xlink:href="https://ws.engr.illinois.edu/sitemanager/getfile.asp?id=507" xlink:title="CS416:Data Visualization">
<defs>
<radialGradient id="r_12" cx="50%" cy="50%" r="75%" fx="100%" fy="50%">
<stop offset="0" style="stop-color:#ffffff;stop-opacity:1.;"/>
<stop offset="1" style="stop-color:#c0c0c0;stop-opacity:1.;"/>
</radialGradient>
</defs>
<ellipse fill="url(#r_12)" stroke="#000000" cx="741.3626" cy="-572.2" rx="120.5114" ry="18"/>
<text text-anchor="middle" x="741.3626" y="-568" font-family="Helvetica,Arial,sans-serif" font-size="14.00" fill="#000000">CS416:Data Visualization</text>
</a>
</g>
</g>
<!-- n33&#45;&gt;n102 -->
<g id="edge4" class="edge">
<title>n33-&gt;n102</title>
<path fill="none" stroke="#000000" d="M860.7921,-569.4409C906.9924,-565.6023 959.697,-557.7596 1005.6122,-542.2 1015.4299,-538.873 1015.8171,-533.5932 1025.6122,-530.2 1049.4688,-521.9356 1075.6195,-516.1564 1101.1638,-512.1254"/>
<polygon fill="#000000" stroke="#000000" points="1101.9248,-515.5506 1111.2976,-510.6108 1100.89,-508.6275 1101.9248,-515.5506"/>
</g>
<!-- n41 -->
<g id="node10" class="node">
<title>n41</title>
<g id="a_node10"><a xlink:href="https://ws.engr.illinois.edu/sitemanager/getfile.asp?id=500" xlink:title="CS484:Parallel Programming">
<defs>
<radialGradient id="r_13" cx="50%" cy="50%" r="75%" fx="100%" fy="50%">
<stop offset="0" style="stop-color:#ffffff;stop-opacity:1.;"/>
<stop offset="1" style="stop-color:#c0c0c0;stop-opacity:1.;"/>
</radialGradient>
</defs>
<ellipse fill="url(#r_13)" stroke="#000000" cx="232.5566" cy="-340.2" rx="136.0991" ry="18"/>
<text text-anchor="middle" x="232.5566" y="-336" font-family="Helvetica,Arial,sans-serif" font-size="14.00" fill="#000000">CS484:Parallel Programming</text>
</a>
</g>
</g>
<!-- n51 -->
<g id="node11" class="node">
<title>n51</title>
<defs>
<radialGradient id="r_14" cx="50%" cy="50%" r="75%" fx="100%" fy="50%">
<stop offset="0" style="stop-color:#ffffff;stop-opacity:1.;"/>
<stop offset="1" style="stop-color:#c0c0c0;stop-opacity:1.;"/>
</radialGradient>
</defs>
<ellipse fill="url(#r_14)" stroke="#000000" cx="232.5566" cy="-618.2" rx="216.6132" ry="18"/>
<text text-anchor="middle" x="232.5566" y="-614" font-family="Helvetica,Arial,sans-serif" font-size="14.00" fill="#000000">CS421:Programming Languages and Compilers</text>
</g>
<!-- n52 -->
<g id="node12" class="node">
<title>n52</title>
<g id="a_node12"><a xlink:href="https://ws.engr.illinois.edu/sitemanager/getfile.asp?id=512" xlink:title="CS427:Software Engineering I">
<defs>
<radialGradient id="r_15" cx="50%" cy="50%" r="75%" fx="100%" fy="50%">
<stop offset="0" style="stop-color:#ffffff;stop-opacity:1.;"/>
<stop offset="1" style="stop-color:#c0c0c0;stop-opacity:1.;"/>
</radialGradient>
</defs>
<ellipse fill="url(#r_15)" stroke="#000000" cx="232.5566" cy="-564.2" rx="140.8101" ry="18"/>
<text text-anchor="middle" x="232.5566" y="-560" font-family="Helvetica,Arial,sans-serif" font-size="14.00" fill="#000000">CS427:Software Engineering I</text>
</a>
</g>
</g>
<!-- n53 -->
<g id="node13" class="node">
<title>n53</title>
<defs>
<radialGradient id="r_16" cx="50%" cy="50%" r="75%" fx="100%" fy="50%">
<stop offset="0" style="stop-color:#ffffff;stop-opacity:1.;"/>
<stop offset="1" style="stop-color:#c0c0c0;stop-opacity:1.;"/>
</radialGradient>
</defs>
<ellipse fill="url(#r_16)" stroke="#000000" cx="232.5566" cy="-510.2" rx="164.49" ry="18"/>
<text text-anchor="middle" x="232.5566" y="-506" font-family="Helvetica,Arial,sans-serif" font-size="14.00" fill="#000000">CS475:Formal Models Computation</text>
</g>
<!-- n61 -->
<g id="node14" class="node">
<title>n61</title>
<g id="a_node14"><a xlink:href="https://ws.engr.illinois.edu/sitemanager/getfile.asp?id=573" xlink:title="CS450:Numerical Analysis">
<defs>
<radialGradient id="r_17" cx="50%" cy="50%" r="75%" fx="100%" fy="50%">
<stop offset="0" style="stop-color:#ffffff;stop-opacity:1.;"/>
<stop offset="1" style="stop-color:#c0c0c0;stop-opacity:1.;"/>
</radialGradient>
</defs>
<ellipse fill="url(#r_17)" stroke="#000000" cx="232.5566" cy="-745.2" rx="125.1338" ry="18"/>
<text text-anchor="middle" x="232.5566" y="-741" font-family="Helvetica,Arial,sans-serif" font-size="14.00" fill="#000000">CS450:Numerical Analysis</text>
</a>
</g>
</g>
<!-- n62 -->
<g id="node15" class="node">
<title>n62</title>
<g id="a_node15"><a xlink:href="https://ws.engr.illinois.edu/sitemanager/getfile.asp?id=5461" xlink:title="CS463:Computer Security II">
<defs>
<radialGradient id="r_18" cx="50%" cy="50%" r="75%" fx="100%" fy="50%">
<stop offset="0" style="stop-color:#ffffff;stop-opacity:1.;"/>
<stop offset="1" style="stop-color:#c0c0c0;stop-opacity:1.;"/>
</radialGradient>
</defs>
<ellipse fill="url(#r_18)" stroke="#000000" cx="232.5566" cy="-851.2" rx="131.4657" ry="18"/>
<text text-anchor="middle" x="232.5566" y="-847" font-family="Helvetica,Arial,sans-serif" font-size="14.00" fill="#000000">CS463:Computer Security II</text>
</a>
</g>
</g>
<!-- n71 -->
<g id="node16" class="node">
<title>n71</title>
<g id="a_node16"><a xlink:href="https://ws.engr.illinois.edu/sitemanager/getfile.asp?id=514" xlink:title="CS425:Distributed Systems (Cloud Computing Concepts)">
<defs>
<radialGradient id="r_19" cx="50%" cy="50%" r="75%" fx="100%" fy="50%">
<stop offset="0" style="stop-color:#ffffff;stop-opacity:1.;"/>
<stop offset="1" style="stop-color:#c0c0c0;stop-opacity:1.;"/>
</radialGradient>
</defs>
<ellipse fill="url(#r_19)" stroke="#000000" cx="741.3626" cy="-379.2" rx="256.4993" ry="18"/>
<text text-anchor="middle" x="741.3626" y="-375" font-family="Helvetica,Arial,sans-serif" font-size="14.00" fill="#000000">CS425:Distributed Systems (Cloud Computing Concepts)</text>
</a>
</g>
</g>
<!-- n107 -->
<g id="node26" class="node">
<title>n107</title>
<g id="a_node26"><a xlink:href="https://ws.engr.illinois.edu/sitemanager/getfile.asp?id=508" xlink:title="CS598:Cloud Computing Capstone">
<defs>
<radialGradient id="r_20" cx="50%" cy="50%" r="75%" fx="100%" fy="50%">
<stop offset="0" style="stop-color:#ffffff;stop-opacity:1.;"/>
<stop offset="1" style="stop-color:#c0c0c0;stop-opacity:1.;"/>
</radialGradient>
</defs>
<ellipse fill="url(#r_20)" stroke="#000000" cx="1237.8368" cy="-449.2" rx="161.6615" ry="18"/>
<text text-anchor="middle" x="1237.8368" y="-445" font-family="Helvetica,Arial,sans-serif" font-size="14.00" fill="#000000">CS598:Cloud Computing Capstone</text>
</a>
</g>
</g>
<!-- n71&#45;&gt;n107 -->
<g id="edge11" class="edge">
<title>n71-&gt;n107</title>
<path fill="none" stroke="#000000" d="M951.8103,-389.5131C970.3499,-393.7558 988.5391,-399.2163 1005.6122,-406.2 1016.1481,-410.5097 1015.1303,-417.7604 1025.6122,-422.2 1043.3128,-429.6971 1062.5307,-435.2664 1081.9287,-439.381"/>
<polygon fill="#000000" stroke="#000000" points="1081.2781,-442.8201 1091.7696,-441.3441 1082.6476,-435.9553 1081.2781,-442.8201"/>
</g>
<!-- n72 -->
<g id="node17" class="node">
<title>n72</title>
<g id="a_node17"><a xlink:href="https://ws.engr.illinois.edu/sitemanager/getfile.asp?id=509" xlink:title="CS435:Cloud Networking">
<defs>
<radialGradient id="r_21" cx="50%" cy="50%" r="75%" fx="100%" fy="50%">
<stop offset="0" style="stop-color:#ffffff;stop-opacity:1.;"/>
<stop offset="1" style="stop-color:#c0c0c0;stop-opacity:1.;"/>
</radialGradient>
</defs>
<ellipse fill="url(#r_21)" stroke="#000000" cx="741.3626" cy="-487.2" rx="119.3502" ry="18"/>
<text text-anchor="middle" x="741.3626" y="-483" font-family="Helvetica,Arial,sans-serif" font-size="14.00" fill="#000000">CS435:Cloud Networking</text>
</a>
</g>
</g>
<!-- n72&#45;&gt;n107 -->
<g id="edge12" class="edge">
<title>n72-&gt;n107</title>
<path fill="none" stroke="#000000" d="M847.8688,-479.048C919.8666,-473.5374 1015.7859,-466.1957 1094.4768,-460.1727"/>
<polygon fill="#000000" stroke="#000000" points="1094.7722,-463.6605 1104.4759,-459.4074 1094.2379,-456.6809 1094.7722,-463.6605"/>
</g>
<!-- n73 -->
<g id="node18" class="node">
<title>n73</title>
<g id="a_node18"><a xlink:href="https://ws.engr.illinois.edu/sitemanager/getfile.asp?id=2240" xlink:title="CS437:Internet of Things">
<defs>
<radialGradient id="r_22" cx="50%" cy="50%" r="75%" fx="100%" fy="50%">
<stop offset="0" style="stop-color:#ffffff;stop-opacity:1.;"/>
<stop offset="1" style="stop-color:#c0c0c0;stop-opacity:1.;"/>
</radialGradient>
</defs>
<ellipse fill="url(#r_22)" stroke="#000000" cx="741.3626" cy="-433.2" rx="118.2412" ry="18"/>
<text text-anchor="middle" x="741.3626" y="-429" font-family="Helvetica,Arial,sans-serif" font-size="14.00" fill="#000000">CS437:Internet of Things</text>
</a>
</g>
</g>
<!-- n73&#45;&gt;n107 -->
<g id="edge13" class="edge">
<title>n73-&gt;n107</title>
<path fill="none" stroke="#000000" d="M857.4504,-436.9412C921.2278,-438.9966 1001.4319,-441.5813 1071.7316,-443.8469"/>
<polygon fill="#000000" stroke="#000000" points="1071.9211,-447.3547 1082.0287,-444.1787 1072.1467,-440.3584 1071.9211,-447.3547"/>
</g>
<!-- n74 -->
<g id="node19" class="node">
<title>n74</title>
<g id="a_node19"><a xlink:href="https://ws.engr.illinois.edu/sitemanager/getfile.asp?id=510" xlink:title="CS498:Cloud Computing Applications">
<defs>
<radialGradient id="r_23" cx="50%" cy="50%" r="75%" fx="100%" fy="50%">
<stop offset="0" style="stop-color:#ffffff;stop-opacity:1.;"/>
<stop offset="1" style="stop-color:#c0c0c0;stop-opacity:1.;"/>
</radialGradient>
</defs>
<ellipse fill="url(#r_23)" stroke="#000000" cx="741.3626" cy="-325.2" rx="172.6133" ry="18"/>
<text text-anchor="middle" x="741.3626" y="-321" font-family="Helvetica,Arial,sans-serif" font-size="14.00" fill="#000000">CS498:Cloud Computing Applications</text>
</a>
</g>
</g>
<!-- n101 -->
<g id="node20" class="node">
<title>n101</title>
<g id="a_node20"><a xlink:href="https://ws.engr.illinois.edu/sitemanager/getfile.asp?id=506" xlink:title="CS513:Theory and Practice of Data Cleaning">
<defs>
<radialGradient id="r_24" cx="50%" cy="50%" r="75%" fx="100%" fy="50%">
<stop offset="0" style="stop-color:#ffffff;stop-opacity:1.;"/>
<stop offset="1" style="stop-color:#c0c0c0;stop-opacity:1.;"/>
</radialGradient>
</defs>
<ellipse fill="url(#r_24)" stroke="#000000" cx="1237.8368" cy="-719.2" rx="204.4495" ry="18"/>
<text text-anchor="middle" x="1237.8368" y="-715" font-family="Helvetica,Arial,sans-serif" font-size="14.00" fill="#000000">CS513:Theory and Practice of Data Cleaning</text>
</a>
</g>
</g>
<!-- n103 -->
<g id="node22" class="node">
<title>n103</title>
<g id="a_node22"><a xlink:href="https://ws.engr.illinois.edu/sitemanager/getfile.asp?id=505" xlink:title="CS598:Foundations of Data Curation">
<defs>
<radialGradient id="r_25" cx="50%" cy="50%" r="75%" fx="100%" fy="50%">
<stop offset="0" style="stop-color:#ffffff;stop-opacity:1.;"/>
<stop offset="1" style="stop-color:#c0c0c0;stop-opacity:1.;"/>
</radialGradient>
</defs>
<ellipse fill="url(#r_25)" stroke="#000000" cx="1237.8368" cy="-611.2" rx="169.1993" ry="18"/>
<text text-anchor="middle" x="1237.8368" y="-607" font-family="Helvetica,Arial,sans-serif" font-size="14.00" fill="#000000">CS598:Foundations of Data Curation</text>
</a>
</g>
</g>
<!-- n105 -->
<g id="node24" class="node">
<title>n105</title>
<g id="a_node24"><a xlink:href="https://ws.engr.illinois.edu/sitemanager/getfile.asp?id=504" xlink:title="CS598:Advanced Bayesian Modeling">
<defs>
<radialGradient id="r_26" cx="50%" cy="50%" r="75%" fx="100%" fy="50%">
<stop offset="0" style="stop-color:#ffffff;stop-opacity:1.;"/>
<stop offset="1" style="stop-color:#c0c0c0;stop-opacity:1.;"/>
</radialGradient>
</defs>
<ellipse fill="url(#r_26)" stroke="#000000" cx="1237.8368" cy="-557.2" rx="170.3527" ry="18"/>
<text text-anchor="middle" x="1237.8368" y="-553" font-family="Helvetica,Arial,sans-serif" font-size="14.00" fill="#000000">CS598:Advanced Bayesian Modeling</text>
</a>
</g>
</g>
<!-- n106&#45;&gt;n104 -->
<g id="edge10" class="edge">
<title>n106-&gt;n104</title>
<path fill="none" stroke="#000000" d="M1407.7185,-395.2C1427.6123,-395.2 1447.9361,-395.2 1467.8937,-395.2"/>
<polygon fill="#000000" stroke="#000000" points="1467.974,-398.7001 1477.974,-395.2 1467.974,-391.7001 1467.974,-398.7001"/>
</g>
<!-- n201 -->
<g id="node28" class="node">
<title>n201</title>
<g id="a_node28"><a xlink:href="https://ws.engr.illinois.edu/sitemanager/getfile.asp?id=501" xlink:title="STAT420:Methods of Applied Statistics">
<defs>
<radialGradient id="r_27" cx="50%" cy="50%" r="75%" fx="100%" fy="50%">
<stop offset="0" style="stop-color:#ffffff;stop-opacity:1.;"/>
<stop offset="1" style="stop-color:#c0c0c0;stop-opacity:1.;"/>
</radialGradient>
</defs>
<ellipse fill="url(#r_27)" stroke="#000000" cx="232.5566" cy="-86.2" rx="178.4314" ry="18"/>
<text text-anchor="middle" x="232.5566" y="-82" font-family="Helvetica,Arial,sans-serif" font-size="14.00" fill="#000000">STAT420:Methods of Applied Statistics</text>
</a>
</g>
</g>
<!-- n201&#45;&gt;n11 -->
<g id="edge1" class="edge">
<title>n201-&gt;n11</title>
<path fill="none" stroke="#000000" d="M258.6366,-104.0086C301.8736,-132.5217 392.0831,-187.7891 477.1131,-213.2 510.5921,-223.2051 547.402,-229.6528 582.6383,-233.7726"/>
<polygon fill="#000000" stroke="#000000" points="582.6972,-237.3006 593.0224,-234.9258 583.4698,-230.3434 582.6972,-237.3006"/>
</g>
<!-- n201&#45;&gt;n104 -->
<g id="edge2" class="edge">
<title>n201-&gt;n104</title>
<path fill="none" stroke="#000000" d="M400.9803,-80.2337C558.0271,-76.9048 798.5023,-77.5206 1005.6122,-102.2 1202.8314,-125.7008 1267.4332,-103.5814 1442.0615,-198.2 1521.9421,-241.4816 1591.6797,-326.0003 1623.7798,-368.8866"/>
<polygon fill="#000000" stroke="#000000" points="1621.1125,-371.1665 1629.8693,-377.1305 1626.743,-367.0074 1621.1125,-371.1665"/>
</g>
<!-- bottom -->
<g id="node29" class="node">
<title>bottom</title>
<g id="a_node29"><a xlink:href="https://siebelschool.illinois.edu/academics/graduate/professional-mcs/online-master-computer-science" xlink:title="Degree Requirement for MCS of UIUC">
<polygon fill="#ffffff" stroke="transparent" points="868.6551,-52.2 614.0702,-52.2 614.0702,-16.2 868.6551,-16.2 868.6551,-52.2"/>
<text text-anchor="middle" x="741.3626" y="-30" font-family="Helvetica,Arial,sans-serif" font-size="14.00" fill="#0000ff">Degree Requirement for MCS of UIUC</text>
</a>
</g>
</g>
<!-- n201&#45;&gt;bottom -->
<!-- annotation1 -->
<g id="node30" class="node">
<title>annotation1</title>
<polygon fill="#ffffff" stroke="transparent" points="1379.1768,-58.6014 1096.4968,-58.6014 1096.4968,.2014 1379.1768,.2014 1379.1768,-58.6014"/>
<text text-anchor="middle" x="1237.8368" y="-41.8" font-family="Helvetica,Arial,sans-serif" font-size="14.00" fill="#000000">4 courses each from a different area</text>
<text text-anchor="middle" x="1237.8368" y="-25" font-family="Helvetica,Arial,sans-serif" font-size="14.00" fill="#000000">3 courses each from advanced coursework</text>
<text text-anchor="middle" x="1237.8368" y="-8.2" font-family="Helvetica,Arial,sans-serif" font-size="14.00" fill="#000000">1 course from any</text>
</g>
<!-- bottom&#45;&gt;annotation1 -->
</g>
</svg>