<svg width="994" height="653" viewBox="0 0 750 489.75" xmlns="http://www.w3.org/2000/svg" xmlns:xlink="http://www.w3.org/1999/xlink">
<g id="graph0" class="graph" transform="translate(1.7751269010600779,453.4967917557143) scale(0.44378172526501947)">
<title>vert</title>
<polygon fill="white" stroke="none" points="-4,4 -4,-944.2 1686.02,-944.2 1686.02,4 -4,4"/>
<g id="clust1" class="cluster">
<title>cluster_1</title>
<polygon fill="none" stroke="black" points="436.75,-106.2 436.75,-291.2 1186.52,-291.2 1186.52,-106.2 436.75,-106.2"/>
<text text-anchor="middle" x="811.63" y="-274.6" font-family="Helvetica,Arial,sans-serif" font-size="14.00">Artificial Intelligence</text>
</g>
<g id="clust2" class="cluster">
<title>cluster_2</title>
<polygon fill="none" stroke="black" points="865.77,-546.2 865.77,-731.2 1180.13,-731.2 1180.13,-546.2 865.77,-546.2"/>
<text text-anchor="middle" x="1022.95" y="-714.6" font-family="Helvetica,Arial,sans-serif" font-size="14.00">Database and Information Systems</text>
</g>
<g id="clust3" class="cluster">
<title>cluster_3</title>
<polygon fill="none" stroke="black" points="44.77,-299.2 44.77,-484.2 737.4,-484.2 737.4,-299.2 44.77,-299.2"/>
<text text-anchor="middle" x="391.08" y="-467.6" font-family="Helvetica,Arial,sans-serif" font-size="14.00">Graphics/HCI</text>
</g>
<g id="clust4" class="cluster">
<title>cluster_4</title>
<polygon fill="none" stroke="black" points="79.34,-492.2 79.34,-569.2 345.41,-569.2 345.41,-492.2 79.34,-492.2"/>
<text text-anchor="middle" x="212.38" y="-552.6" font-family="Helvetica,Arial,sans-serif" font-size="14.00">Parallel Computing</text>
</g>
<g id="clust5" class="cluster">
<title>cluster_5</title>
<polygon fill="none" stroke="black" points="8,-577.2 8,-762.2 416.75,-762.2 416.75,-577.2 8,-577.2"/>
<text text-anchor="middle" x="212.38" y="-745.6" font-family="Helvetica,Arial,sans-serif" font-size="14.00">Programming Languages &amp; Software Engineering</text>
</g>
<g id="clust6" class="cluster">
<title>cluster_6</title>
<polygon fill="none" stroke="black" points="87.39,-770.2 87.39,-847.2 337.36,-847.2 337.36,-770.2 87.39,-770.2"/>
<text text-anchor="middle" x="212.38" y="-830.6" font-family="Helvetica,Arial,sans-serif" font-size="14.00">Scientific Computing</text>
</g>
<g id="clust7" class="cluster">
<title>cluster_7</title>
<polygon fill="none" stroke="black" points="82.29,-855.2 82.29,-932.2 342.46,-932.2 342.46,-855.2 82.29,-855.2"/>
<text text-anchor="middle" x="212.38" y="-915.6" font-family="Helvetica,Arial,sans-serif" font-size="14.00">Security and Privacy</text>
</g>
<g id="clust8" class="cluster">
<title>cluster_8</title>
<polygon fill="none" stroke="black" points="780.19,-299.2 780.19,-538.2 1265.71,-538.2 1265.71,-299.2 780.19,-299.2"/>
<text text-anchor="middle" x="1022.95" y="-521.6" font-family="Helvetica,Arial,sans-serif" font-size="14.00">Systems and Networking</text>
</g>
<g id="clust10" class="cluster">
<title>cluster_10</title>
<polygon fill="none" stroke="black" points="1285.71,-137.2 1285.71,-484.2 1674.02,-484.2 1674.02,-137.2 1285.71,-137.2"/>
<text text-anchor="middle" x="1479.87" y="-467.6" font-family="Helvetica,Arial,sans-serif" font-size="14.00">Advanced Coursework</text>
</g>
<g id="clust11" class="cluster">
<title>cluster_15</title>
<polygon fill="none" stroke="black" points="36.96,-60.2 36.96,-137.2 387.8,-137.2 387.8,-60.2 36.96,-60.2"/>
<text text-anchor="middle" x="212.38" y="-120.6" font-family="Helvetica,Arial,sans-serif" font-size="14.00">Statistics</text>
</g>
<!-- n11 -->
<g id="node1" class="node">
<title>n11</title>
<g id="a_node1"><a xlink:href="https://ws.engr.illinois.edu/sitemanager/getfile.asp?id=2218" xlink:title="CS441:Applied Machine Learning">
<defs>
<radialGradient id="node1_r_728" cx="50%" cy="50%" r="75%" fx="100%" fy="50%">
<stop offset="0" style="stop-color:white;stop-opacity:1.;"/>
<stop offset="1" style="stop-color:gray;stop-opacity:1.;"/>
</radialGradient>
</defs>
<ellipse fill="url(#node1_r_728)" stroke="black" cx="598.47" cy="-186.2" rx="144.6" ry="18"/>
<text text-anchor="middle" x="598.47" y="-182" font-family="Helvetica,Arial,sans-serif" font-size="14.00">CS441:Applied Machine Learning</text>
</a>
</g>
</g>
<!-- n104 -->
<g id="node23" class="node">
<title>n104</title>
<g id="a_node23"><a xlink:href="https://ws.engr.illinois.edu/sitemanager/getfile.asp?id=502" xlink:title="CS598:Practical Statistical Learning">
<defs>
<radialGradient id="node23_r_729" cx="50%" cy="50%" r="75%" fx="100%" fy="50%">
<stop offset="0" style="stop-color:white;stop-opacity:1.;"/>
<stop offset="1" style="stop-color:gray;stop-opacity:1.;"/>
</radialGradient>
</defs>
<ellipse fill="url(#node23_r_729)" stroke="black" cx="1479.87" cy="-271.2" rx="151.57" ry="18"/>
<text text-anchor="middle" x="1479.87" y="-267" font-family="Helvetica,Arial,sans-serif" font-size="14.00">CS598:Practical Statistical Learning</text>
</a>
</g>
</g>
<!-- n11&#45;&gt;n104 -->
<g id="edge6" class="edge">
<title>n11-&gt;n104</title>
<path fill="none" stroke="black" d="M722.07,-176.53C889.07,-165.67 1177.4,-155.89 1265.71,-209.2 1281.05,-218.46 1270.88,-234.15 1285.71,-244.2 1297.33,-252.07 1310.24,-258.09 1323.73,-262.67"/>
<polygon fill="black" stroke="black" points="1322.62,-265.99 1333.21,-265.59 1324.68,-259.3 1322.62,-265.99"/>
</g>
<!-- n106 -->
<g id="node25" class="node">
<title>n106</title>
<g id="a_node25"><a xlink:href="https://ws.engr.illinois.edu/sitemanager/getfile.asp?id=2191" xlink:title="CS598:Deep Learning for Healthcare">
<defs>
<radialGradient id="node25_r_730" cx="50%" cy="50%" r="75%" fx="100%" fy="50%">
<stop offset="0" style="stop-color:white;stop-opacity:1.;"/>
<stop offset="1" style="stop-color:gray;stop-opacity:1.;"/>
</radialGradient>
</defs>
<ellipse fill="url(#node25_r_730)" stroke="black" cx="1022.95" cy="-236.2" rx="155.57" ry="18"/>
<text text-anchor="middle" x="1022.95" y="-232" font-family="Helvetica,Arial,sans-serif" font-size="14.00">CS598:Deep Learning for Healthcare</text>
</a>
</g>
</g>
<!-- n11&#45;&gt;n106 -->
<g id="edge5" class="edge">
<title>n11-&gt;n106</title>
<path fill="none" stroke="black" d="M705.26,-198.72C764.63,-205.75 838.93,-214.54 900.65,-221.84"/>
<polygon fill="black" stroke="black" points="900.17,-225.31 910.52,-223.01 901,-218.36 900.17,-225.31"/>
</g>
<!-- n12 -->
<g id="node2" class="node">
<title>n12</title>
<g id="a_node2"><a xlink:href="https://ws.engr.illinois.edu/sitemanager/getfile.asp?id=572" xlink:title="CS445:Computational Photography">
<defs>
<radialGradient id="node2_r_731" cx="50%" cy="50%" r="75%" fx="100%" fy="50%">
<stop offset="0" style="stop-color:white;stop-opacity:1.;"/>
<stop offset="1" style="stop-color:gray;stop-opacity:1.;"/>
</radialGradient>
</defs>
<ellipse fill="url(#node2_r_731)" stroke="black" cx="598.47" cy="-132.2" rx="149.19" ry="18"/>
<text text-anchor="middle" x="598.47" y="-128" font-family="Helvetica,Arial,sans-serif" font-size="14.00">CS445:Computational Photography</text>
</a>
</g>
</g>
<!-- n12&#45;&gt;n104 -->
<g id="edge7" class="edge">
<title>n12-&gt;n104</title>
<path fill="none" stroke="black" d="M720.16,-121.46C889.31,-109.11 1185.24,-98.2 1265.71,-164.2 1294.05,-187.44 1258.46,-219.7 1285.71,-244.2 1295.45,-252.96 1306.65,-259.68 1318.66,-264.79"/>
<polygon fill="black" stroke="black" points="1317.39,-268.05 1327.98,-268.34 1319.88,-261.51 1317.39,-268.05"/>
</g>
<!-- n13 -->
<g id="node3" class="node">
<title>n13</title>
<defs>
<radialGradient id="node3_r_732" cx="50%" cy="50%" r="75%" fx="100%" fy="50%">
<stop offset="0" style="stop-color:white;stop-opacity:1.;"/>
<stop offset="1" style="stop-color:gray;stop-opacity:1.;"/>
</radialGradient>
</defs>
<ellipse fill="url(#node3_r_732)" stroke="black" cx="598.47" cy="-240.2" rx="153.72" ry="18"/>
<text text-anchor="middle" x="598.47" y="-236" font-family="Helvetica,Arial,sans-serif" font-size="14.00">CS447:Natural Language Processing</text>
</g>
<!-- n21 -->
<g id="node4" class="node">
<title>n21</title>
<g id="a_node4"><a xlink:href="https://ws.engr.illinois.edu/sitemanager/getfile.asp?id=515" xlink:title="CS410:Text Information Systems">
<defs>
<radialGradient id="node4_r_733" cx="50%" cy="50%" r="75%" fx="100%" fy="50%">
<stop offset="0" style="stop-color:white;stop-opacity:1.;"/>
<stop offset="1" style="stop-color:gray;stop-opacity:1.;"/>
</radialGradient>
</defs>
<ellipse fill="url(#node4_r_733)" stroke="black" cx="1022.95" cy="-572.2" rx="140.86" ry="18"/>
<text text-anchor="middle" x="1022.95" y="-568" font-family="Helvetica,Arial,sans-serif" font-size="14.00">CS410:Text Information Systems</text>
</a>
</g>
</g>
<!-- n21&#45;&gt;n104 -->
<g id="edge8" class="edge">
<title>n21-&gt;n104</title>
<path fill="none" stroke="black" d="M1113.74,-586.36C1165.43,-589.05 1227.51,-582.03 1265.71,-542.2 1303.37,-502.94 1248.36,-337.75 1285.71,-298.2 1294.79,-288.59 1305.6,-281.28 1317.39,-275.79"/>
<polygon fill="black" stroke="black" points="1318.68,-279.05 1326.59,-272.01 1316.01,-272.58 1318.68,-279.05"/>
</g>
<!-- n108 -->
<g id="node27" class="node">
<title>n108</title>
<g id="a_node27"><a xlink:href="https://ws.engr.illinois.edu/sitemanager/getfile.asp?id=503" xlink:title="CS598:Data Mining Capstone">
<defs>
<radialGradient id="node27_r_734" cx="50%" cy="50%" r="75%" fx="100%" fy="50%">
<stop offset="0" style="stop-color:white;stop-opacity:1.;"/>
<stop offset="1" style="stop-color:gray;stop-opacity:1.;"/>
</radialGradient>
</defs>
<ellipse fill="url(#node27_r_734)" stroke="black" cx="1479.87" cy="-433.2" rx="127.45" ry="18"/>
<text text-anchor="middle" x="1479.87" y="-429" font-family="Helvetica,Arial,sans-serif" font-size="14.00">CS598:Data Mining Capstone</text>
</a>
</g>
</g>
<!-- n21&#45;&gt;n108 -->
<g id="edge14" class="edge">
<title>n21-&gt;n108</title>
<path fill="none" stroke="black" d="M1152.12,-564.71C1189.32,-560.29 1229.63,-553.29 1265.71,-542.2 1331.23,-522.07 1400.79,-482.65 1441.99,-457.14"/>
<polygon fill="black" stroke="black" points="1443.69,-460.21 1450.31,-451.93 1439.97,-454.27 1443.69,-460.21"/>
</g>
<!-- n22 -->
<g id="node5" class="node">
<title>n22</title>
<g id="a_node5"><a xlink:href="https://ws.engr.illinois.edu/sitemanager/getfile.asp?id=513" xlink:title="CS411:Database Systems">
<defs>
<radialGradient id="node5_r_735" cx="50%" cy="50%" r="75%" fx="100%" fy="50%">
<stop offset="0" style="stop-color:white;stop-opacity:1.;"/>
<stop offset="1" style="stop-color:gray;stop-opacity:1.;"/>
</radialGradient>
</defs>
<ellipse fill="url(#node5_r_735)" stroke="black" cx="1022.95" cy="-626.2" rx="110.02" ry="18"/>
<text text-anchor="middle" x="1022.95" y="-622" font-family="Helvetica,Arial,sans-serif" font-size="14.00">CS411:Database Systems</text>
</a>
</g>
</g>
<!-- n23 -->
<g id="node6" class="node">
<title>n23</title>
<g id="a_node6"><a xlink:href="https://ws.engr.illinois.edu/sitemanager/getfile.asp?id=511" xlink:title="CS412:Introduction to Data Mining">
<defs>
<radialGradient id="node6_r_736" cx="50%" cy="50%" r="75%" fx="100%" fy="50%">
<stop offset="0" style="stop-color:white;stop-opacity:1.;"/>
<stop offset="1" style="stop-color:gray;stop-opacity:1.;"/>
</radialGradient>
</defs>
<ellipse fill="url(#node6_r_736)" stroke="black" cx="1022.95" cy="-680.2" rx="149.18" ry="18"/>
<text text-anchor="middle" x="1022.95" y="-676" font-family="Helvetica,Arial,sans-serif" font-size="14.00">CS412:Introduction to Data Mining</text>
</a>
</g>
</g>
<!-- n23&#45;&gt;n104 -->
<g id="edge9" class="edge">
<title>n23-&gt;n104</title>
<path fill="none" stroke="black" d="M1107.49,-695.46C1160.47,-699.93 1226.23,-694.91 1265.71,-653.2 1320.03,-595.82 1232.2,-356.33 1285.71,-298.2 1294.85,-288.27 1305.82,-280.78 1317.84,-275.21"/>
<polygon fill="black" stroke="black" points="1318.84,-278.59 1326.76,-271.55 1316.18,-272.11 1318.84,-278.59"/>
</g>
<!-- n23&#45;&gt;n108 -->
<g id="edge15" class="edge">
<title>n23-&gt;n108</title>
<path fill="none" stroke="black" d="M1172.34,-679.81C1204.32,-675.36 1237.09,-667.25 1265.71,-653.2 1356.19,-608.8 1429.53,-509.57 1461.51,-461.02"/>
<polygon fill="black" stroke="black" points="1464.38,-463.03 1466.88,-452.74 1458.51,-459.23 1464.38,-463.03"/>
</g>
<!-- n31 -->
<g id="node7" class="node">
<title>n31</title>
<defs>
<radialGradient id="node7_r_737" cx="50%" cy="50%" r="75%" fx="100%" fy="50%">
<stop offset="0" style="stop-color:white;stop-opacity:1.;"/>
<stop offset="1" style="stop-color:gray;stop-opacity:1.;"/>
</radialGradient>
</defs>
<ellipse fill="url(#node7_r_737)" stroke="black" cx="212.38" cy="-325.2" rx="159.61" ry="18"/>
<text text-anchor="middle" x="212.38" y="-321" font-family="Helvetica,Arial,sans-serif" font-size="14.00">CS418:Interactive Computer Graphics</text>
</g>
<!-- n102 -->
<g id="node21" class="node">
<title>n102</title>
<g id="a_node21"><a xlink:href="https://documentcloud.adobe.com/link/review?uri=urn:aaid:scds:US:78ef0a5f-6307-4635-8552-379d5cc15313#pageNum=1" xlink:title="CS519:Scientific Visualization">
<defs>
<radialGradient id="node21_r_738" cx="50%" cy="50%" r="75%" fx="100%" fy="50%">
<stop offset="0" style="stop-color:white;stop-opacity:1.;"/>
<stop offset="1" style="stop-color:gray;stop-opacity:1.;"/>
</radialGradient>
</defs>
<ellipse fill="url(#node21_r_738)" stroke="black" cx="598.47" cy="-379.2" rx="130.93" ry="18"/>
<text text-anchor="middle" x="598.47" y="-375" font-family="Helvetica,Arial,sans-serif" font-size="14.00">CS519:Scientific Visualization</text>
</a>
</g>
</g>
<!-- n31&#45;&gt;n102 -->
<g id="edge3" class="edge">
<title>n31-&gt;n102</title>
<path fill="none" stroke="black" d="M319.24,-338.92C350.64,-343.08 385.1,-347.73 416.75,-352.2 443.14,-355.92 471.67,-360.11 498.09,-364.05"/>
<polygon fill="black" stroke="black" points="497.37,-367.48 507.77,-365.5 498.4,-360.56 497.37,-367.48"/>
</g>
<!-- n32 -->
<g id="node8" class="node">
<title>n32</title>
<g id="a_node8"><a xlink:href="https://ws.engr.illinois.edu/sitemanager/getfile.asp?id=572" xlink:title="CS445:Computational Photography">
<defs>
<radialGradient id="node8_r_739" cx="50%" cy="50%" r="75%" fx="100%" fy="50%">
<stop offset="0" style="stop-color:white;stop-opacity:1.;"/>
<stop offset="1" style="stop-color:gray;stop-opacity:1.;"/>
</radialGradient>
</defs>
<ellipse fill="url(#node8_r_739)" stroke="black" cx="212.38" cy="-379.2" rx="149.19" ry="18"/>
<text text-anchor="middle" x="212.38" y="-375" font-family="Helvetica,Arial,sans-serif" font-size="14.00">CS445:Computational Photography</text>
</a>
</g>
</g>
<!-- n33 -->
<g id="node9" class="node">
<title>n33</title>
<g id="a_node9"><a xlink:href="https://ws.engr.illinois.edu/sitemanager/getfile.asp?id=507" xlink:title="CS416:Data Visualization">
<defs>
<radialGradient id="node9_r_740" cx="50%" cy="50%" r="75%" fx="100%" fy="50%">
<stop offset="0" style="stop-color:white;stop-opacity:1.;"/>
<stop offset="1" style="stop-color:gray;stop-opacity:1.;"/>
</radialGradient>
</defs>
<ellipse fill="url(#node9_r_740)" stroke="black" cx="212.38" cy="-433.2" rx="112.15" ry="18"/>
<text text-anchor="middle" x="212.38" y="-429" font-family="Helvetica,Arial,sans-serif" font-size="14.00">CS416:Data Visualization</text>
</a>
</g>
</g>
<!-- n33&#45;&gt;n102 -->
<g id="edge4" class="edge">
<title>n33-&gt;n102</title>
<path fill="none" stroke="black" d="M301.26,-421.85C337.1,-417.14 378.93,-411.54 416.75,-406.2 443.14,-402.48 471.67,-398.29 498.09,-394.35"/>
<polygon fill="black" stroke="black" points="498.4,-397.84 507.77,-392.9 497.37,-390.92 498.4,-397.84"/>
</g>
<!-- n41 -->
<g id="node10" class="node">
<title>n41</title>
<g id="a_node10"><a xlink:href="https://ws.engr.illinois.edu/sitemanager/getfile.asp?id=500" xlink:title="CS484:Parallel Programming">
<defs>
<radialGradient id="node10_r_741" cx="50%" cy="50%" r="75%" fx="100%" fy="50%">
<stop offset="0" style="stop-color:white;stop-opacity:1.;"/>
<stop offset="1" style="stop-color:gray;stop-opacity:1.;"/>
</radialGradient>
</defs>
<ellipse fill="url(#node10_r_741)" stroke="black" cx="212.38" cy="-518.2" rx="125.03" ry="18"/>
<text text-anchor="middle" x="212.38" y="-514" font-family="Helvetica,Arial,sans-serif" font-size="14.00">CS484:Parallel Programming</text>
</a>
</g>
</g>
<!-- n51 -->
<g id="node11" class="node">
<title>n51</title>
<defs>
<radialGradient id="node11_r_742" cx="50%" cy="50%" r="75%" fx="100%" fy="50%">
<stop offset="0" style="stop-color:white;stop-opacity:1.;"/>
<stop offset="1" style="stop-color:gray;stop-opacity:1.;"/>
</radialGradient>
</defs>
<ellipse fill="url(#node11_r_742)" stroke="black" cx="212.38" cy="-603.2" rx="196.38" ry="18"/>
<text text-anchor="middle" x="212.38" y="-599" font-family="Helvetica,Arial,sans-serif" font-size="14.00">CS421:Programming Languages and Compilers</text>
</g>
<!-- n52 -->
<g id="node12" class="node">
<title>n52</title>
<g id="a_node12"><a xlink:href="https://ws.engr.illinois.edu/sitemanager/getfile.asp?id=512" xlink:title="CS427:Software Engineering I">
<defs>
<radialGradient id="node12_r_743" cx="50%" cy="50%" r="75%" fx="100%" fy="50%">
<stop offset="0" style="stop-color:white;stop-opacity:1.;"/>
<stop offset="1" style="stop-color:gray;stop-opacity:1.;"/>
</radialGradient>
</defs>
<ellipse fill="url(#node12_r_743)" stroke="black" cx="212.38" cy="-657.2" rx="130.12" ry="18"/>
<text text-anchor="middle" x="212.38" y="-653" font-family="Helvetica,Arial,sans-serif" font-size="14.00">CS427:Software Engineering I</text>
</a>
</g>
</g>
<!-- n53 -->
<g id="node13" class="node">
<title>n53</title>
<defs>
<radialGradient id="node13_r_744" cx="50%" cy="50%" r="75%" fx="100%" fy="50%">
<stop offset="0" style="stop-color:white;stop-opacity:1.;"/>
<stop offset="1" style="stop-color:gray;stop-opacity:1.;"/>
</radialGradient>
</defs>
<ellipse fill="url(#node13_r_744)" stroke="black" cx="212.38" cy="-711.2" rx="152.14" ry="18"/>
<text text-anchor="middle" x="212.38" y="-707" font-family="Helvetica,Arial,sans-serif" font-size="14.00">CS475:Formal Models Computation</text>
</g>
<!-- n61 -->
<g id="node14" class="node">
<title>n61</title>
<g id="a_node14"><a xlink:href="https://ws.engr.illinois.edu/sitemanager/getfile.asp?id=573" xlink:title="CS450:Numerical Analysis">
<defs>
<radialGradient id="node14_r_745" cx="50%" cy="50%" r="75%" fx="100%" fy="50%">
<stop offset="0" style="stop-color:white;stop-opacity:1.;"/>
<stop offset="1" style="stop-color:gray;stop-opacity:1.;"/>
</radialGradient>
</defs>
<ellipse fill="url(#node14_r_745)" stroke="black" cx="212.38" cy="-796.2" rx="116.98" ry="18"/>
<text text-anchor="middle" x="212.38" y="-792" font-family="Helvetica,Arial,sans-serif" font-size="14.00">CS450:Numerical Analysis</text>
</a>
</g>
</g>
<!-- n62 -->
<g id="node15" class="node">
<title>n62</title>
<g id="a_node15"><a xlink:href="https://ws.engr.illinois.edu/sitemanager/getfile.asp?id=5461" xlink:title="CS463:Computer Security II">
<defs>
<radialGradient id="node15_r_746" cx="50%" cy="50%" r="75%" fx="100%" fy="50%">
<stop offset="0" style="stop-color:white;stop-opacity:1.;"/>
<stop offset="1" style="stop-color:gray;stop-opacity:1.;"/>
</radialGradient>
</defs>
<ellipse fill="url(#node15_r_746)" stroke="black" cx="212.38" cy="-881.2" rx="122.08" ry="18"/>
<text text-anchor="middle" x="212.38" y="-877" font-family="Helvetica,Arial,sans-serif" font-size="14.00">CS463:Computer Security II</text>
</a>
</g>
</g>
<!-- n71 -->
<g id="node16" class="node">
<title>n71</title>
<g id="a_node16"><a xlink:href="https://ws.engr.illinois.edu/sitemanager/getfile.asp?id=514" xlink:title="CS425:Distributed Systems (Cloud Computing Concepts)">
<defs>
<radialGradient id="node16_r_747" cx="50%" cy="50%" r="75%" fx="100%" fy="50%">
<stop offset="0" style="stop-color:white;stop-opacity:1.;"/>
<stop offset="1" style="stop-color:gray;stop-opacity:1.;"/>
</radialGradient>
</defs>
<ellipse fill="url(#node16_r_747)" stroke="black" cx="1022.95" cy="-325.2" rx="234.76" ry="18"/>
<text text-anchor="middle" x="1022.95" y="-321" font-family="Helvetica,Arial,sans-serif" font-size="14.00">CS425:Distributed Systems (Cloud Computing Concepts)</text>
</a>
</g>
</g>
<!-- n107 -->
<g id="node26" class="node">
<title>n107</title>
<g id="a_node26"><a xlink:href="https://ws.engr.illinois.edu/sitemanager/getfile.asp?id=508" xlink:title="CS598:Cloud Computing Capstone">
<defs>
<radialGradient id="node26_r_748" cx="50%" cy="50%" r="75%" fx="100%" fy="50%">
<stop offset="0" style="stop-color:white;stop-opacity:1.;"/>
<stop offset="1" style="stop-color:gray;stop-opacity:1.;"/>
</radialGradient>
</defs>
<ellipse fill="url(#node26_r_748)" stroke="black" cx="1479.87" cy="-379.2" rx="147.86" ry="18"/>
<text text-anchor="middle" x="1479.87" y="-375" font-family="Helvetica,Arial,sans-serif" font-size="14.00">CS598:Cloud Computing Capstone</text>
</a>
</g>
</g>
<!-- n71&#45;&gt;n107 -->
<g id="edge11" class="edge">
<title>n71-&gt;n107</title>
<path fill="none" stroke="black" d="M1161.12,-340.16C1195.29,-343.99 1231.85,-348.16 1265.71,-352.2 1298.1,-356.06 1333.23,-360.43 1365.45,-364.52"/>
<polygon fill="black" stroke="black" points="1364.86,-367.97 1375.22,-365.76 1365.74,-361.03 1364.86,-367.97"/>
</g>
<!-- n72 -->
<g id="node17" class="node">
<title>n72</title>
<g id="a_node17"><a xlink:href="https://ws.engr.illinois.edu/sitemanager/getfile.asp?id=509" xlink:title="CS435:Cloud Networking">
<defs>
<radialGradient id="node17_r_749" cx="50%" cy="50%" r="75%" fx="100%" fy="50%">
<stop offset="0" style="stop-color:white;stop-opacity:1.;"/>
<stop offset="1" style="stop-color:gray;stop-opacity:1.;"/>
</radialGradient>
</defs>
<ellipse fill="url(#node17_r_749)" stroke="black" cx="1022.95" cy="-379.2" rx="112.17" ry="18"/>
<text text-anchor="middle" x="1022.95" y="-375" font-family="Helvetica,Arial,sans-serif" font-size="14.00">CS435:Cloud Networking</text>
</a>
</g>
</g>
<!-- n72&#45;&gt;n107 -->
<g id="edge12" class="edge">
<title>n72-&gt;n107</title>
<path fill="none" stroke="black" d="M1135.53,-379.2C1191.12,-379.2 1259.32,-379.2 1320.25,-379.2"/>
<polygon fill="black" stroke="black" points="1320.02,-382.7 1330.02,-379.2 1320.02,-375.7 1320.02,-382.7"/>
</g>
<!-- n73 -->
<g id="node18" class="node">
<title>n73</title>
<g id="a_node18"><a xlink:href="https://ws.engr.illinois.edu/sitemanager/getfile.asp?id=2240" xlink:title="CS437:Internet of Things">
<defs>
<radialGradient id="node18_r_750" cx="50%" cy="50%" r="75%" fx="100%" fy="50%">
<stop offset="0" style="stop-color:white;stop-opacity:1.;"/>
<stop offset="1" style="stop-color:gray;stop-opacity:1.;"/>
</radialGradient>
</defs>
<ellipse fill="url(#node18_r_750)" stroke="black" cx="1022.95" cy="-433.2" rx="109.74" ry="18"/>
<text text-anchor="middle" x="1022.95" y="-429" font-family="Helvetica,Arial,sans-serif" font-size="14.00">CS437:Internet of Things</text>
</a>
</g>
</g>
<!-- n73&#45;&gt;n107 -->
<g id="edge13" class="edge">
<title>n73-&gt;n107</title>
<path fill="none" stroke="black" d="M1115.83,-423.26C1161,-418.29 1216.23,-412.1 1265.71,-406.2 1298.1,-402.34 1333.23,-397.97 1365.45,-393.88"/>
<polygon fill="black" stroke="black" points="1365.74,-397.37 1375.22,-392.64 1364.86,-390.43 1365.74,-397.37"/>
</g>
<!-- n74 -->
<g id="node19" class="node">
<title>n74</title>
<g id="a_node19"><a xlink:href="https://ws.engr.illinois.edu/sitemanager/getfile.asp?id=510" xlink:title="CS498:Cloud Computing Applications">
<defs>
<radialGradient id="node19_r_751" cx="50%" cy="50%" r="75%" fx="100%" fy="50%">
<stop offset="0" style="stop-color:white;stop-opacity:1.;"/>
<stop offset="1" style="stop-color:gray;stop-opacity:1.;"/>
</radialGradient>
</defs>
<ellipse fill="url(#node19_r_751)" stroke="black" cx="1022.95" cy="-487.2" rx="161.27" ry="18"/>
<text text-anchor="middle" x="1022.95" y="-483" font-family="Helvetica,Arial,sans-serif" font-size="14.00">CS498:Cloud Computing Applications</text>
</a>
</g>
</g>
<!-- n101 -->
<g id="node20" class="node">
<title>n101</title>
<g id="a_node20"><a xlink:href="https://ws.engr.illinois.edu/sitemanager/getfile.asp?id=506" xlink:title="CS513:Theory and Practice of Data Cleaning">
<defs>
<radialGradient id="node20_r_752" cx="50%" cy="50%" r="75%" fx="100%" fy="50%">
<stop offset="0" style="stop-color:white;stop-opacity:1.;"/>
<stop offset="1" style="stop-color:gray;stop-opacity:1.;"/>
</radialGradient>
</defs>
<ellipse fill="url(#node20_r_752)" stroke="black" cx="1479.87" cy="-163.2" rx="186.15" ry="18"/>
<text text-anchor="middle" x="1479.87" y="-159" font-family="Helvetica,Arial,sans-serif" font-size="14.00">CS513:Theory and Practice of Data Cleaning</text>
</a>
</g>
</g>
<!-- n103 -->
<g id="node22" class="node">
<title>n103</title>
<g id="a_node22"><a xlink:href="https://ws.engr.illinois.edu/sitemanager/getfile.asp?id=505" xlink:title="CS598:Foundations of Data Curation">
<defs>
<radialGradient id="node22_r_753" cx="50%" cy="50%" r="75%" fx="100%" fy="50%">
<stop offset="0" style="stop-color:white;stop-opacity:1.;"/>
<stop offset="1" style="stop-color:gray;stop-opacity:1.;"/>
</radialGradient>
</defs>
<ellipse fill="url(#node22_r_753)" stroke="black" cx="1479.87" cy="-217.2" rx="155.08" ry="18"/>
<text text-anchor="middle" x="1479.87" y="-213" font-family="Helvetica,Arial,sans-serif" font-size="14.00">CS598:Foundations of Data Curation</text>
</a>
</g>
</g>
<!-- n105 -->
<g id="node24" class="node">
<title>n105</title>
<g id="a_node24"><a xlink:href="https://ws.engr.illinois.edu/sitemanager/getfile.asp?id=504" xlink:title="CS598:Advanced Bayesian Modeling">
<defs>
<radialGradient id="node24_r_754" cx="50%" cy="50%" r="75%" fx="100%" fy="50%">
<stop offset="0" style="stop-color:white;stop-opacity:1.;"/>
<stop offset="1" style="stop-color:gray;stop-opacity:1.;"/>
</radialGradient>
</defs>
<ellipse fill="url(#node24_r_754)" stroke="black" cx="1479.87" cy="-325.2" rx="156.94" ry="18"/>
<text text-anchor="middle" x="1479.87" y="-321" font-family="Helvetica,Arial,sans-serif" font-size="14.00">CS598:Advanced Bayesian Modeling</text>
</a>
</g>
</g>
<!-- n106&#45;&gt;n104 -->
<g id="edge10" class="edge">
<title>n106-&gt;n104</title>
<path fill="none" stroke="black" d="M1154.01,-246.21C1212.1,-250.68 1280.65,-255.95 1339.77,-260.5"/>
<polygon fill="black" stroke="black" points="1339.32,-263.97 1349.56,-261.25 1339.86,-256.99 1339.32,-263.97"/>
</g>
<!-- n201 -->
<g id="node28" class="node">
<title>n201</title>
<g id="a_node28"><a xlink:href="https://ws.engr.illinois.edu/sitemanager/getfile.asp?id=501" xlink:title="STAT420:Methods of Applied Statistics">
<defs>
<radialGradient id="node28_r_755" cx="50%" cy="50%" r="75%" fx="100%" fy="50%">
<stop offset="0" style="stop-color:white;stop-opacity:1.;"/>
<stop offset="1" style="stop-color:gray;stop-opacity:1.;"/>
</radialGradient>
</defs>
<ellipse fill="url(#node28_r_755)" stroke="black" cx="212.38" cy="-86.2" rx="167.42" ry="18"/>
<text text-anchor="middle" x="212.38" y="-82" font-family="Helvetica,Arial,sans-serif" font-size="14.00">STAT420:Methods of Applied Statistics</text>
</a>
</g>
</g>
<!-- n201&#45;&gt;n11 -->
<g id="edge1" class="edge">
<title>n201-&gt;n11</title>
<path fill="none" stroke="black" d="M260.28,-103.8C305.07,-120.06 374.75,-143.95 436.75,-159.2 453.93,-163.42 472.3,-167.2 490.27,-170.48"/>
<polygon fill="black" stroke="black" points="489.43,-173.89 499.89,-172.2 490.66,-167 489.43,-173.89"/>
</g>
<!-- n201&#45;&gt;n104 -->
<g id="edge2" class="edge">
<title>n201-&gt;n104</title>
<path fill="none" stroke="black" d="M377.82,-83.16C665.55,-78.62 1233.07,-73.39 1265.71,-102.2 1313.5,-144.37 1240.62,-199.16 1285.71,-244.2 1294.98,-253.45 1305.85,-260.53 1317.63,-265.87"/>
<polygon fill="black" stroke="black" points="1316.22,-269.07 1326.8,-269.56 1318.84,-262.58 1316.22,-269.07"/>
</g>
<!-- bo -->
<g id="node29" class="node">
<title>bottom</title>
<g id="a_node29"><a xlink:href="https://siebelschool.illinois.edu/academics/graduate/professional-mcs/online-master-computer-science" xlink:title="Degree Requirement for MCS of UIUC">
<polygon fill="white" stroke="none" points="717.47,-53.2 479.47,-53.2 479.47,-17.2 717.47,-17.2 717.47,-53.2"/>
<text text-anchor="middle" x="598.47" y="-31" font-family="Helvetica,Arial,sans-serif" font-size="14.00" fill="rgb(0, 0, 255)">Degree Requirement for MCS of UIUC</text>
</a>
</g>
</g>
<!-- c -->
<!-- a -->
<g id="node30" class="node">
<title>annotation1</title>
<polygon fill="white" stroke="none" points="1149.7,-58.4 896.2,-58.4 896.2,0 1149.7,0 1149.7,-58.4"/>
<text text-anchor="middle" x="1022.95" y="-41.8" font-family="Helvetica,Arial,sans-serif" font-size="14.00">4 courses each from a different area</text>
<text text-anchor="middle" x="1022.95" y="-25" font-family="Helvetica,Arial,sans-serif" font-size="14.00">3 courses each from advanced coursework</text>
<text text-anchor="middle" x="1022.95" y="-8.2" font-family="Helvetica,Arial,sans-serif" font-size="14.00">1 course from any</text>
</g>
<!-- bottom&#45;&gt;a -->
</g>
</svg>